<?xml version="1.0" encoding="utf-8"?>
<!-- Svg Vector Icons : http://www.onlinewebfonts.com/icon -->
<!DOCTYPE svg PUBLIC "-//W3C//DTD SVG 1.1//EN" "http://www.w3.org/Graphics/SVG/1.1/DTD/svg11.dtd">
<svg version="1.1" xmlns="http://www.w3.org/2000/svg" xmlns:xlink="http://www.w3.org/1999/xlink" x="0px" y="0px" viewBox="0 0 1000 1000" enable-background="new 0 0 1000 1000" xml:space="preserve">
<metadata> Svg Vector Icons : http://www.onlinewebfonts.com/icon </metadata>
<g><g transform="translate(0.000000,511.000000) scale(0.100000,-0.100000)"><path d="M3719.6,4175.8c-164-63.7-310.9-193.4-396.6-345.2c-68.5-124.9-73.4-151.8-80.8-455.4l-9.8-325.6h-945c-758.9,0-979.3-7.3-1104.1-36.7C688.8,2895.4,257.9,2464.5,140.4,1970c-53.9-235-53.9-4656.4,0-4891.4c117.5-494.5,548.4-925.4,1042.9-1042.9c237.5-53.9,7395.9-53.9,7633.4,0c494.5,117.5,925.4,548.4,1042.9,1042.9c53.9,235,53.9,4656.4,0,4891.4c-117.5,494.5-548.4,925.4-1042.9,1042.9c-124.9,29.4-345.2,36.7-1104.1,36.7h-945l-9.8,325.6c-7.3,303.6-12.2,330.5-80.8,455.4c-85.7,156.7-232.6,281.5-403.9,347.6c-115.1,44.1-195.9,46.5-1280.4,46.5C3922.8,4222.3,3827.3,4219.8,3719.6,4175.8z M6211.8,3798.8c129.7-56.3,159.1-139.5,159.1-467.6v-281.5H5000H3629v281.5c0,323.2,29.4,411.3,154.2,465.1C3900.8,3847.7,6089.4,3847.7,6211.8,3798.8z M8944,2569.8c281.5-134.6,448-333,526.4-631.6c49-186.1,49-4641.7,0-4827.8c-97.9-369.7-355-614.5-724.6-692.9c-100.4-22-1062.5-26.9-3833.8-22l-3696.7,7.3l-186.1,90.6c-217.9,110.2-337.8,230.1-445.6,457.8l-75.9,161.6v2411.4v2411.4l75.9,161.6c44.1,90.6,117.5,205.6,166.5,259.5c95.5,107.7,323.2,239.9,470,274.2c56.3,12.2,1628,22,3828.9,19.6l3733.4-4.9L8944,2569.8z"/><path d="M1266.6,2141.4c-237.5-225.2-379.5-516.6-379.5-785.9c0-149.3,26.9-200.7,122.4-239.9c58.8-24.5,88.1-24.5,146.9,0c93,39.2,122.4,90.6,122.4,225.2c0,188.5,41.6,279.1,220.3,472.5c95.5,100.4,171.4,205.6,171.4,230.1c0,122.4-100.4,222.8-222.8,222.8C1420.8,2266.2,1337.5,2209.9,1266.6,2141.4z"/><path d="M4676.8,1458.3c-854.4-156.7-1520.3-763.8-1762.7-1608.4c-78.3-274.2-78.3-768.7,0-1042.9c222.8-776.1,788.3-1341.6,1564.4-1564.4c274.2-78.3,768.7-78.3,1042.9,0C6297.5-2534.6,6863-1969.1,7085.8-1193c78.3,274.2,78.3,768.7,0,1042.9c-220.3,771.2-790.7,1344-1552.1,1559.5C5332.9,1468.1,4867.8,1495,4676.8,1458.3z M5362.3,1051.9c477.4-97.9,852-347.6,1113.9-744.2c411.3-619.4,369.7-1515.4-97.9-2093.2c-318.3-391.7-749.1-607.1-1280.4-641.4c-893.6-53.9-1659.9,536.2-1826.3,1407.7C3110-174.6,3540.9,645.5,4317,958.9C4635.2,1088.7,5019.6,1122.9,5362.3,1051.9z"/><path d="M4473.6,638.2c-58.8-56.3-61.2-71-61.2-391.7V-84h-330.5c-320.7,0-335.4-2.4-391.7-61.2C3629-204,3629-208.9,3629-671.6s0-467.6,61.2-526.3c56.3-58.8,71-61.2,391.7-61.2h330.5v-330.5c0-320.7,2.5-335.4,61.2-391.7c58.8-61.2,63.7-61.2,526.4-61.2c462.7,0,467.6,0,526.4,61.2c58.8,56.3,61.2,71,61.2,391.7v330.5h330.5c320.7,0,335.4,2.4,391.7,61.2c61.2,58.8,61.2,63.6,61.2,526.3s0,467.6-61.2,526.4c-56.3,58.8-71,61.2-391.7,61.2h-330.5v330.5c0,320.7-2.4,335.4-61.2,391.7c-58.8,61.2-63.6,61.2-526.4,61.2C4537.3,699.4,4532.4,699.4,4473.6,638.2z M5195.9-22.8c0-320.7,2.4-335.4,61.2-391.7c56.3-58.8,71-61.2,391.7-61.2h330.5v-195.9v-195.8h-330.5c-320.7,0-335.4-2.4-391.7-61.2c-58.8-56.3-61.2-71-61.2-391.7v-330.5H5000h-195.8v330.5c0,320.7-2.5,335.4-61.2,391.7c-56.3,58.8-71,61.2-391.7,61.2h-330.5v195.8v195.9h330.5c320.7,0,335.4,2.4,391.7,61.2c58.8,56.3,61.2,71,61.2,391.7v330.5H5000h195.9V-22.8z"/><path d="M948.3,834c-122.4-120-36.7-330.5,134.6-330.5c100.4,0,195.8,95.5,195.8,195.9s-95.5,195.9-195.8,195.9C1036.4,895.2,985,873.2,948.3,834z"/></g></g>
</svg>